<mxfile host="app.diagrams.net" modified="2021-12-19T06:20:35.703Z" agent="5.0 (Windows NT 10.0; Win64; x64) AppleWebKit/537.36 (KHTML, like Gecko) Chrome/96.0.4664.110 Safari/537.36" etag="ffa0WsxhNW6_KRRoy_lM" version="16.0.0" type="github" pages="7">
  <diagram id="fuctRVu0iIT9ArRBHX20" name="redis主从">
    <mxGraphModel dx="868" dy="527" grid="1" gridSize="10" guides="1" tooltips="1" connect="1" arrows="1" fold="1" page="1" pageScale="1" pageWidth="827" pageHeight="1169" math="0" shadow="0">
      <root>
        <mxCell id="0" />
        <mxCell id="1" parent="0" />
        <mxCell id="aQGHwk2Vk0OFyVlebsmG-1" value="从服务器" style="ellipse;shape=doubleEllipse;whiteSpace=wrap;html=1;fillColor=#d5e8d4;strokeColor=#82b366;" parent="1" vertex="1">
          <mxGeometry x="460" y="70" width="100" height="60" as="geometry" />
        </mxCell>
        <mxCell id="aQGHwk2Vk0OFyVlebsmG-3" value="&lt;span&gt;从服务器&lt;/span&gt;" style="ellipse;shape=doubleEllipse;whiteSpace=wrap;html=1;fillColor=#d5e8d4;strokeColor=#82b366;" parent="1" vertex="1">
          <mxGeometry x="460" y="170" width="100" height="60" as="geometry" />
        </mxCell>
        <mxCell id="aQGHwk2Vk0OFyVlebsmG-4" value="&lt;span&gt;从服务器&lt;/span&gt;" style="ellipse;shape=doubleEllipse;whiteSpace=wrap;html=1;fillColor=#d5e8d4;strokeColor=#82b366;" parent="1" vertex="1">
          <mxGeometry x="460" y="270" width="100" height="60" as="geometry" />
        </mxCell>
        <mxCell id="aQGHwk2Vk0OFyVlebsmG-5" value="主服务器" style="ellipse;shape=doubleEllipse;whiteSpace=wrap;html=1;fillColor=#dae8fc;strokeColor=#6c8ebf;" parent="1" vertex="1">
          <mxGeometry x="150" y="170" width="100" height="60" as="geometry" />
        </mxCell>
        <mxCell id="aQGHwk2Vk0OFyVlebsmG-6" value="" style="endArrow=classic;html=1;rounded=0;entryX=1;entryY=0;entryDx=0;entryDy=0;exitX=0;exitY=0.5;exitDx=0;exitDy=0;" parent="1" source="aQGHwk2Vk0OFyVlebsmG-1" target="aQGHwk2Vk0OFyVlebsmG-5" edge="1">
          <mxGeometry width="50" height="50" relative="1" as="geometry">
            <mxPoint x="390" y="280" as="sourcePoint" />
            <mxPoint x="440" y="230" as="targetPoint" />
          </mxGeometry>
        </mxCell>
        <mxCell id="aQGHwk2Vk0OFyVlebsmG-7" value="" style="endArrow=classic;html=1;rounded=0;entryX=1;entryY=0.5;entryDx=0;entryDy=0;exitX=0;exitY=0.5;exitDx=0;exitDy=0;" parent="1" source="aQGHwk2Vk0OFyVlebsmG-3" target="aQGHwk2Vk0OFyVlebsmG-5" edge="1">
          <mxGeometry width="50" height="50" relative="1" as="geometry">
            <mxPoint x="470" y="110" as="sourcePoint" />
            <mxPoint x="245.3553390593272" y="188.78679656440363" as="targetPoint" />
          </mxGeometry>
        </mxCell>
        <mxCell id="aQGHwk2Vk0OFyVlebsmG-8" value="" style="endArrow=classic;html=1;rounded=0;entryX=1;entryY=1;entryDx=0;entryDy=0;exitX=0;exitY=0.5;exitDx=0;exitDy=0;" parent="1" source="aQGHwk2Vk0OFyVlebsmG-4" target="aQGHwk2Vk0OFyVlebsmG-5" edge="1">
          <mxGeometry width="50" height="50" relative="1" as="geometry">
            <mxPoint x="470" y="110" as="sourcePoint" />
            <mxPoint x="245.3553390593272" y="188.78679656440363" as="targetPoint" />
          </mxGeometry>
        </mxCell>
        <mxCell id="aQGHwk2Vk0OFyVlebsmG-10" value="复制" style="text;html=1;align=center;verticalAlign=middle;resizable=0;points=[];autosize=1;strokeColor=none;fillColor=none;fontSize=19;" parent="1" vertex="1">
          <mxGeometry x="320" y="110" width="50" height="30" as="geometry" />
        </mxCell>
        <mxCell id="aQGHwk2Vk0OFyVlebsmG-11" value="复制" style="text;html=1;align=center;verticalAlign=middle;resizable=0;points=[];autosize=1;strokeColor=none;fillColor=none;fontSize=19;" parent="1" vertex="1">
          <mxGeometry x="340" y="170" width="50" height="30" as="geometry" />
        </mxCell>
        <mxCell id="aQGHwk2Vk0OFyVlebsmG-12" value="复制" style="text;html=1;align=center;verticalAlign=middle;resizable=0;points=[];autosize=1;strokeColor=none;fillColor=none;fontSize=19;" parent="1" vertex="1">
          <mxGeometry x="320" y="260" width="50" height="30" as="geometry" />
        </mxCell>
      </root>
    </mxGraphModel>
  </diagram>
  <diagram id="w6iGSVFuwvCQl6xQdIyk" name="存储速度比较">
    <mxGraphModel dx="536" dy="491" grid="1" gridSize="10" guides="1" tooltips="1" connect="1" arrows="1" fold="1" page="1" pageScale="1" pageWidth="827" pageHeight="1169" math="0" shadow="0">
      <root>
        <mxCell id="_J4W4paum3sTOUuSTrMB-0" />
        <mxCell id="_J4W4paum3sTOUuSTrMB-1" parent="_J4W4paum3sTOUuSTrMB-0" />
        <mxCell id="_J4W4paum3sTOUuSTrMB-2" value="" style="shape=table;startSize=0;container=1;collapsible=0;childLayout=tableLayout;rounded=0;shadow=1;glass=0;sketch=0;" parent="_J4W4paum3sTOUuSTrMB-1" vertex="1">
          <mxGeometry x="70" y="150" width="430" height="160" as="geometry" />
        </mxCell>
        <mxCell id="_J4W4paum3sTOUuSTrMB-3" value="" style="shape=partialRectangle;collapsible=0;dropTarget=0;pointerEvents=0;fillColor=none;top=0;left=0;bottom=0;right=0;points=[[0,0.5],[1,0.5]];portConstraint=eastwest;rounded=0;shadow=1;glass=0;sketch=0;" parent="_J4W4paum3sTOUuSTrMB-2" vertex="1">
          <mxGeometry width="430" height="40" as="geometry" />
        </mxCell>
        <mxCell id="_J4W4paum3sTOUuSTrMB-4" value="存储类型" style="shape=partialRectangle;html=1;whiteSpace=wrap;connectable=0;overflow=hidden;fillColor=#d5e8d4;top=0;left=0;bottom=0;right=0;pointerEvents=1;rounded=0;shadow=1;glass=0;sketch=0;strokeColor=#82b366;" parent="_J4W4paum3sTOUuSTrMB-3" vertex="1">
          <mxGeometry width="109" height="40" as="geometry">
            <mxRectangle width="109" height="40" as="alternateBounds" />
          </mxGeometry>
        </mxCell>
        <mxCell id="_J4W4paum3sTOUuSTrMB-5" value="每秒读写次数" style="shape=partialRectangle;html=1;whiteSpace=wrap;connectable=0;overflow=hidden;fillColor=#d5e8d4;top=0;left=0;bottom=0;right=0;pointerEvents=1;rounded=0;shadow=1;glass=0;sketch=0;strokeColor=#82b366;" parent="_J4W4paum3sTOUuSTrMB-3" vertex="1">
          <mxGeometry x="109" width="106" height="40" as="geometry">
            <mxRectangle width="106" height="40" as="alternateBounds" />
          </mxGeometry>
        </mxCell>
        <mxCell id="_J4W4paum3sTOUuSTrMB-6" value="随机读写延迟" style="shape=partialRectangle;html=1;whiteSpace=wrap;connectable=0;overflow=hidden;fillColor=#d5e8d4;top=0;left=0;bottom=0;right=0;pointerEvents=1;rounded=0;shadow=1;glass=0;sketch=0;strokeColor=#82b366;" parent="_J4W4paum3sTOUuSTrMB-3" vertex="1">
          <mxGeometry x="215" width="109" height="40" as="geometry">
            <mxRectangle width="109" height="40" as="alternateBounds" />
          </mxGeometry>
        </mxCell>
        <mxCell id="_J4W4paum3sTOUuSTrMB-7" value="访问带宽" style="shape=partialRectangle;html=1;whiteSpace=wrap;connectable=0;overflow=hidden;fillColor=#d5e8d4;top=0;left=0;bottom=0;right=0;pointerEvents=1;rounded=0;shadow=1;glass=0;sketch=0;strokeColor=#82b366;" parent="_J4W4paum3sTOUuSTrMB-3" vertex="1">
          <mxGeometry x="324" width="106" height="40" as="geometry">
            <mxRectangle width="106" height="40" as="alternateBounds" />
          </mxGeometry>
        </mxCell>
        <mxCell id="_J4W4paum3sTOUuSTrMB-8" value="" style="shape=partialRectangle;collapsible=0;dropTarget=0;pointerEvents=0;fillColor=none;top=0;left=0;bottom=0;right=0;points=[[0,0.5],[1,0.5]];portConstraint=eastwest;rounded=0;shadow=1;glass=0;sketch=0;" parent="_J4W4paum3sTOUuSTrMB-2" vertex="1">
          <mxGeometry y="40" width="430" height="40" as="geometry" />
        </mxCell>
        <mxCell id="_J4W4paum3sTOUuSTrMB-9" value="内存" style="shape=partialRectangle;html=1;whiteSpace=wrap;connectable=0;overflow=hidden;fillColor=none;top=0;left=0;bottom=0;right=0;pointerEvents=1;rounded=0;shadow=1;glass=0;sketch=0;" parent="_J4W4paum3sTOUuSTrMB-8" vertex="1">
          <mxGeometry width="109" height="40" as="geometry">
            <mxRectangle width="109" height="40" as="alternateBounds" />
          </mxGeometry>
        </mxCell>
        <mxCell id="_J4W4paum3sTOUuSTrMB-10" value="千万级别" style="shape=partialRectangle;html=1;whiteSpace=wrap;connectable=0;overflow=hidden;fillColor=none;top=0;left=0;bottom=0;right=0;pointerEvents=1;rounded=0;shadow=1;glass=0;sketch=0;" parent="_J4W4paum3sTOUuSTrMB-8" vertex="1">
          <mxGeometry x="109" width="106" height="40" as="geometry">
            <mxRectangle width="106" height="40" as="alternateBounds" />
          </mxGeometry>
        </mxCell>
        <mxCell id="_J4W4paum3sTOUuSTrMB-11" value="80ns" style="shape=partialRectangle;html=1;whiteSpace=wrap;connectable=0;overflow=hidden;fillColor=none;top=0;left=0;bottom=0;right=0;pointerEvents=1;rounded=0;shadow=1;glass=0;sketch=0;" parent="_J4W4paum3sTOUuSTrMB-8" vertex="1">
          <mxGeometry x="215" width="109" height="40" as="geometry">
            <mxRectangle width="109" height="40" as="alternateBounds" />
          </mxGeometry>
        </mxCell>
        <mxCell id="_J4W4paum3sTOUuSTrMB-12" value="5GB" style="shape=partialRectangle;html=1;whiteSpace=wrap;connectable=0;overflow=hidden;fillColor=none;top=0;left=0;bottom=0;right=0;pointerEvents=1;rounded=0;shadow=1;glass=0;sketch=0;" parent="_J4W4paum3sTOUuSTrMB-8" vertex="1">
          <mxGeometry x="324" width="106" height="40" as="geometry">
            <mxRectangle width="106" height="40" as="alternateBounds" />
          </mxGeometry>
        </mxCell>
        <mxCell id="_J4W4paum3sTOUuSTrMB-13" value="" style="shape=partialRectangle;collapsible=0;dropTarget=0;pointerEvents=0;fillColor=none;top=0;left=0;bottom=0;right=0;points=[[0,0.5],[1,0.5]];portConstraint=eastwest;rounded=0;shadow=1;glass=0;sketch=0;" parent="_J4W4paum3sTOUuSTrMB-2" vertex="1">
          <mxGeometry y="80" width="430" height="40" as="geometry" />
        </mxCell>
        <mxCell id="_J4W4paum3sTOUuSTrMB-14" value="SSD盘" style="shape=partialRectangle;html=1;whiteSpace=wrap;connectable=0;overflow=hidden;fillColor=#ffe6cc;top=0;left=0;bottom=0;right=0;pointerEvents=1;rounded=0;shadow=1;glass=0;sketch=0;strokeColor=#d79b00;" parent="_J4W4paum3sTOUuSTrMB-13" vertex="1">
          <mxGeometry width="109" height="40" as="geometry">
            <mxRectangle width="109" height="40" as="alternateBounds" />
          </mxGeometry>
        </mxCell>
        <mxCell id="_J4W4paum3sTOUuSTrMB-15" value="35000" style="shape=partialRectangle;html=1;whiteSpace=wrap;connectable=0;overflow=hidden;fillColor=#ffe6cc;top=0;left=0;bottom=0;right=0;pointerEvents=1;rounded=0;shadow=1;glass=0;sketch=0;strokeColor=#d79b00;" parent="_J4W4paum3sTOUuSTrMB-13" vertex="1">
          <mxGeometry x="109" width="106" height="40" as="geometry">
            <mxRectangle width="106" height="40" as="alternateBounds" />
          </mxGeometry>
        </mxCell>
        <mxCell id="_J4W4paum3sTOUuSTrMB-16" value="0.1-0.2ms" style="shape=partialRectangle;html=1;whiteSpace=wrap;connectable=0;overflow=hidden;fillColor=#ffe6cc;top=0;left=0;bottom=0;right=0;pointerEvents=1;rounded=0;shadow=1;glass=0;sketch=0;strokeColor=#d79b00;" parent="_J4W4paum3sTOUuSTrMB-13" vertex="1">
          <mxGeometry x="215" width="109" height="40" as="geometry">
            <mxRectangle width="109" height="40" as="alternateBounds" />
          </mxGeometry>
        </mxCell>
        <mxCell id="_J4W4paum3sTOUuSTrMB-17" value="100-300MB" style="shape=partialRectangle;html=1;whiteSpace=wrap;connectable=0;overflow=hidden;fillColor=#ffe6cc;top=0;left=0;bottom=0;right=0;pointerEvents=1;rounded=0;shadow=1;glass=0;sketch=0;strokeColor=#d79b00;" parent="_J4W4paum3sTOUuSTrMB-13" vertex="1">
          <mxGeometry x="324" width="106" height="40" as="geometry">
            <mxRectangle width="106" height="40" as="alternateBounds" />
          </mxGeometry>
        </mxCell>
        <mxCell id="_J4W4paum3sTOUuSTrMB-18" value="" style="shape=partialRectangle;collapsible=0;dropTarget=0;pointerEvents=0;fillColor=none;top=0;left=0;bottom=0;right=0;points=[[0,0.5],[1,0.5]];portConstraint=eastwest;rounded=0;shadow=1;glass=0;sketch=0;" parent="_J4W4paum3sTOUuSTrMB-2" vertex="1">
          <mxGeometry y="120" width="430" height="40" as="geometry" />
        </mxCell>
        <mxCell id="_J4W4paum3sTOUuSTrMB-19" value="机械盘" style="shape=partialRectangle;html=1;whiteSpace=wrap;connectable=0;overflow=hidden;fillColor=none;top=0;left=0;bottom=0;right=0;pointerEvents=1;rounded=0;shadow=1;glass=0;sketch=0;" parent="_J4W4paum3sTOUuSTrMB-18" vertex="1">
          <mxGeometry width="109" height="40" as="geometry">
            <mxRectangle width="109" height="40" as="alternateBounds" />
          </mxGeometry>
        </mxCell>
        <mxCell id="_J4W4paum3sTOUuSTrMB-20" value="100" style="shape=partialRectangle;html=1;whiteSpace=wrap;connectable=0;overflow=hidden;fillColor=none;top=0;left=0;bottom=0;right=0;pointerEvents=1;rounded=0;shadow=1;glass=0;sketch=0;" parent="_J4W4paum3sTOUuSTrMB-18" vertex="1">
          <mxGeometry x="109" width="106" height="40" as="geometry">
            <mxRectangle width="106" height="40" as="alternateBounds" />
          </mxGeometry>
        </mxCell>
        <mxCell id="_J4W4paum3sTOUuSTrMB-21" value="10ms" style="shape=partialRectangle;html=1;whiteSpace=wrap;connectable=0;overflow=hidden;fillColor=none;top=0;left=0;bottom=0;right=0;pointerEvents=1;rounded=0;shadow=1;glass=0;sketch=0;" parent="_J4W4paum3sTOUuSTrMB-18" vertex="1">
          <mxGeometry x="215" width="109" height="40" as="geometry">
            <mxRectangle width="109" height="40" as="alternateBounds" />
          </mxGeometry>
        </mxCell>
        <mxCell id="_J4W4paum3sTOUuSTrMB-22" value="100MB" style="shape=partialRectangle;html=1;whiteSpace=wrap;connectable=0;overflow=hidden;fillColor=none;top=0;left=0;bottom=0;right=0;pointerEvents=1;rounded=0;shadow=1;glass=0;sketch=0;" parent="_J4W4paum3sTOUuSTrMB-18" vertex="1">
          <mxGeometry x="324" width="106" height="40" as="geometry">
            <mxRectangle width="106" height="40" as="alternateBounds" />
          </mxGeometry>
        </mxCell>
      </root>
    </mxGraphModel>
  </diagram>
  <diagram id="TWs5FR6MA_wNm9x_7SD6" name="hash">
    <mxGraphModel dx="536" dy="435" grid="1" gridSize="10" guides="1" tooltips="1" connect="1" arrows="1" fold="1" page="1" pageScale="1" pageWidth="827" pageHeight="1169" math="0" shadow="0">
      <root>
        <mxCell id="QVBOtkDyrvQ08q3iQPct-0" />
        <mxCell id="QVBOtkDyrvQ08q3iQPct-1" parent="QVBOtkDyrvQ08q3iQPct-0" />
        <mxCell id="hI5kFSfxCpFlOwazfbQP-3" value="ht[0]" style="rounded=1;whiteSpace=wrap;html=1;fillColor=#d5e8d4;strokeColor=#82b366;fontSize=16;" vertex="1" parent="QVBOtkDyrvQ08q3iQPct-1">
          <mxGeometry x="80" y="180" width="120" height="60" as="geometry" />
        </mxCell>
        <mxCell id="hI5kFSfxCpFlOwazfbQP-4" value="ht[1]" style="rounded=1;whiteSpace=wrap;html=1;fillColor=#f8cecc;strokeColor=#b85450;fontSize=16;" vertex="1" parent="QVBOtkDyrvQ08q3iQPct-1">
          <mxGeometry x="200" y="180" width="120" height="60" as="geometry" />
        </mxCell>
        <mxCell id="hI5kFSfxCpFlOwazfbQP-5" value="hashtable" style="whiteSpace=wrap;html=1;aspect=fixed;fillColor=#60a917;fontColor=#ffffff;strokeColor=#2D7600;fontSize=16;" vertex="1" parent="QVBOtkDyrvQ08q3iQPct-1">
          <mxGeometry x="100" y="300" width="80" height="80" as="geometry" />
        </mxCell>
        <mxCell id="hI5kFSfxCpFlOwazfbQP-6" value="" style="endArrow=classic;html=1;rounded=0;exitX=0.5;exitY=1;exitDx=0;exitDy=0;entryX=0.5;entryY=0;entryDx=0;entryDy=0;" edge="1" parent="QVBOtkDyrvQ08q3iQPct-1" source="hI5kFSfxCpFlOwazfbQP-3" target="hI5kFSfxCpFlOwazfbQP-5">
          <mxGeometry width="50" height="50" relative="1" as="geometry">
            <mxPoint x="250" y="280" as="sourcePoint" />
            <mxPoint x="300" y="230" as="targetPoint" />
          </mxGeometry>
        </mxCell>
        <mxCell id="hI5kFSfxCpFlOwazfbQP-7" value="rehash" style="html=1;shadow=0;dashed=0;align=center;verticalAlign=middle;shape=mxgraph.arrows2.arrow;dy=0.6;dx=40;notch=0;fontSize=16;fillColor=#ffe6cc;strokeColor=#d79b00;" vertex="1" parent="QVBOtkDyrvQ08q3iQPct-1">
          <mxGeometry x="340" y="240" width="100" height="70" as="geometry" />
        </mxCell>
        <mxCell id="hI5kFSfxCpFlOwazfbQP-8" value="ht[0]" style="rounded=1;whiteSpace=wrap;html=1;fillColor=#d5e8d4;strokeColor=#82b366;fontSize=16;" vertex="1" parent="QVBOtkDyrvQ08q3iQPct-1">
          <mxGeometry x="510" y="180" width="120" height="60" as="geometry" />
        </mxCell>
        <mxCell id="hI5kFSfxCpFlOwazfbQP-9" value="ht[1]" style="rounded=1;whiteSpace=wrap;html=1;fillColor=#f8cecc;strokeColor=#b85450;fontSize=16;" vertex="1" parent="QVBOtkDyrvQ08q3iQPct-1">
          <mxGeometry x="630" y="180" width="120" height="60" as="geometry" />
        </mxCell>
        <mxCell id="hI5kFSfxCpFlOwazfbQP-10" value="hashtable" style="whiteSpace=wrap;html=1;aspect=fixed;fillColor=#60a917;fontColor=#ffffff;strokeColor=#2D7600;fontSize=16;" vertex="1" parent="QVBOtkDyrvQ08q3iQPct-1">
          <mxGeometry x="450" y="300" width="80" height="80" as="geometry" />
        </mxCell>
        <mxCell id="hI5kFSfxCpFlOwazfbQP-15" value="" style="curved=1;endArrow=classic;html=1;rounded=0;fontSize=16;entryX=0.5;entryY=0;entryDx=0;entryDy=0;exitX=0.5;exitY=1;exitDx=0;exitDy=0;" edge="1" parent="QVBOtkDyrvQ08q3iQPct-1" source="hI5kFSfxCpFlOwazfbQP-8" target="hI5kFSfxCpFlOwazfbQP-10">
          <mxGeometry width="50" height="50" relative="1" as="geometry">
            <mxPoint x="310" y="290" as="sourcePoint" />
            <mxPoint x="529" y="256" as="targetPoint" />
            <Array as="points">
              <mxPoint x="450" y="280" />
            </Array>
          </mxGeometry>
        </mxCell>
        <mxCell id="hI5kFSfxCpFlOwazfbQP-16" value="hashtable" style="whiteSpace=wrap;html=1;aspect=fixed;fillColor=#60a917;fontColor=#ffffff;strokeColor=#2D7600;fontSize=16;" vertex="1" parent="QVBOtkDyrvQ08q3iQPct-1">
          <mxGeometry x="730" y="300" width="80" height="80" as="geometry" />
        </mxCell>
        <mxCell id="hI5kFSfxCpFlOwazfbQP-17" value="" style="curved=1;endArrow=classic;html=1;rounded=0;fontSize=16;entryX=0.5;entryY=0;entryDx=0;entryDy=0;exitX=0.5;exitY=1;exitDx=0;exitDy=0;" edge="1" parent="QVBOtkDyrvQ08q3iQPct-1" target="hI5kFSfxCpFlOwazfbQP-16">
          <mxGeometry width="50" height="50" relative="1" as="geometry">
            <mxPoint x="700" y="240" as="sourcePoint" />
            <mxPoint x="620" y="300" as="targetPoint" />
            <Array as="points">
              <mxPoint x="790" y="270" />
            </Array>
          </mxGeometry>
        </mxCell>
        <mxCell id="hI5kFSfxCpFlOwazfbQP-18" value="old" style="text;html=1;align=center;verticalAlign=middle;resizable=0;points=[];autosize=1;strokeColor=none;fillColor=none;fontSize=16;" vertex="1" parent="QVBOtkDyrvQ08q3iQPct-1">
          <mxGeometry x="520" y="260" width="40" height="20" as="geometry" />
        </mxCell>
        <mxCell id="hI5kFSfxCpFlOwazfbQP-19" value="new" style="text;html=1;align=center;verticalAlign=middle;resizable=0;points=[];autosize=1;strokeColor=none;fillColor=none;fontSize=16;" vertex="1" parent="QVBOtkDyrvQ08q3iQPct-1">
          <mxGeometry x="700" y="260" width="40" height="20" as="geometry" />
        </mxCell>
      </root>
    </mxGraphModel>
  </diagram>
  <diagram id="3F2tbML1ucvfA0kYLfWk" name="跳跃列表">
    <mxGraphModel dx="868" dy="527" grid="1" gridSize="10" guides="1" tooltips="1" connect="1" arrows="1" fold="1" page="1" pageScale="1" pageWidth="827" pageHeight="1169" math="0" shadow="0">
      <root>
        <mxCell id="cnGfeA4LUYAOEn0dMFqA-0" />
        <mxCell id="cnGfeA4LUYAOEn0dMFqA-1" parent="cnGfeA4LUYAOEn0dMFqA-0" />
        <mxCell id="cnGfeA4LUYAOEn0dMFqA-2" value="L0" style="rounded=0;whiteSpace=wrap;html=1;fontSize=16;direction=south;fillColor=#fff2cc;strokeColor=#d6b656;" parent="cnGfeA4LUYAOEn0dMFqA-1" vertex="1">
          <mxGeometry x="70" y="160" width="60" height="60" as="geometry" />
        </mxCell>
        <mxCell id="cnGfeA4LUYAOEn0dMFqA-5" value="L1" style="rounded=0;whiteSpace=wrap;html=1;fontSize=16;direction=south;fillColor=#fff2cc;strokeColor=#d6b656;" parent="cnGfeA4LUYAOEn0dMFqA-1" vertex="1">
          <mxGeometry x="70" y="220" width="60" height="60" as="geometry" />
        </mxCell>
        <mxCell id="cnGfeA4LUYAOEn0dMFqA-6" value="L2" style="rounded=0;whiteSpace=wrap;html=1;fontSize=16;direction=south;fillColor=#fff2cc;strokeColor=#d6b656;" parent="cnGfeA4LUYAOEn0dMFqA-1" vertex="1">
          <mxGeometry x="70" y="280" width="60" height="60" as="geometry" />
        </mxCell>
        <mxCell id="cnGfeA4LUYAOEn0dMFqA-7" value="value&lt;br&gt;score" style="rounded=0;whiteSpace=wrap;html=1;fontSize=16;fillColor=#d5e8d4;strokeColor=#82b366;" parent="cnGfeA4LUYAOEn0dMFqA-1" vertex="1">
          <mxGeometry x="180" y="100" width="80" height="60" as="geometry" />
        </mxCell>
        <mxCell id="cnGfeA4LUYAOEn0dMFqA-8" value="L0" style="rounded=0;whiteSpace=wrap;html=1;fontSize=16;fillColor=#60a917;fontColor=#ffffff;strokeColor=#2D7600;" parent="cnGfeA4LUYAOEn0dMFqA-1" vertex="1">
          <mxGeometry x="180" y="160" width="80" height="60" as="geometry" />
        </mxCell>
        <mxCell id="cnGfeA4LUYAOEn0dMFqA-11" value="value&lt;br&gt;score" style="rounded=0;whiteSpace=wrap;html=1;fontSize=16;fillColor=#d5e8d4;strokeColor=#82b366;" parent="cnGfeA4LUYAOEn0dMFqA-1" vertex="1">
          <mxGeometry x="310" y="100" width="80" height="60" as="geometry" />
        </mxCell>
        <mxCell id="cnGfeA4LUYAOEn0dMFqA-12" value="L0" style="rounded=0;whiteSpace=wrap;html=1;fontSize=16;fillColor=#60a917;fontColor=#ffffff;strokeColor=#2D7600;" parent="cnGfeA4LUYAOEn0dMFqA-1" vertex="1">
          <mxGeometry x="310" y="160" width="80" height="60" as="geometry" />
        </mxCell>
        <mxCell id="cnGfeA4LUYAOEn0dMFqA-13" value="value&lt;br&gt;score" style="rounded=0;whiteSpace=wrap;html=1;fontSize=16;fillColor=#d5e8d4;strokeColor=#82b366;" parent="cnGfeA4LUYAOEn0dMFqA-1" vertex="1">
          <mxGeometry x="440" y="100" width="80" height="60" as="geometry" />
        </mxCell>
        <mxCell id="cnGfeA4LUYAOEn0dMFqA-14" value="L0" style="rounded=0;whiteSpace=wrap;html=1;fontSize=16;fillColor=#60a917;fontColor=#ffffff;strokeColor=#2D7600;" parent="cnGfeA4LUYAOEn0dMFqA-1" vertex="1">
          <mxGeometry x="440" y="160" width="80" height="60" as="geometry" />
        </mxCell>
        <mxCell id="cnGfeA4LUYAOEn0dMFqA-15" value="value&lt;br&gt;score" style="rounded=0;whiteSpace=wrap;html=1;fontSize=16;fillColor=#d5e8d4;strokeColor=#82b366;" parent="cnGfeA4LUYAOEn0dMFqA-1" vertex="1">
          <mxGeometry x="570" y="100" width="80" height="60" as="geometry" />
        </mxCell>
        <mxCell id="cnGfeA4LUYAOEn0dMFqA-16" value="L0" style="rounded=0;whiteSpace=wrap;html=1;fontSize=16;fillColor=#60a917;fontColor=#ffffff;strokeColor=#2D7600;" parent="cnGfeA4LUYAOEn0dMFqA-1" vertex="1">
          <mxGeometry x="570" y="160" width="80" height="60" as="geometry" />
        </mxCell>
        <mxCell id="cnGfeA4LUYAOEn0dMFqA-17" value="value&lt;br&gt;score" style="rounded=0;whiteSpace=wrap;html=1;fontSize=16;fillColor=#d5e8d4;strokeColor=#82b366;" parent="cnGfeA4LUYAOEn0dMFqA-1" vertex="1">
          <mxGeometry x="700" y="100" width="80" height="60" as="geometry" />
        </mxCell>
        <mxCell id="cnGfeA4LUYAOEn0dMFqA-18" value="L0" style="rounded=0;whiteSpace=wrap;html=1;fontSize=16;fillColor=#60a917;fontColor=#ffffff;strokeColor=#2D7600;" parent="cnGfeA4LUYAOEn0dMFqA-1" vertex="1">
          <mxGeometry x="700" y="160" width="80" height="60" as="geometry" />
        </mxCell>
        <mxCell id="cnGfeA4LUYAOEn0dMFqA-19" value="" style="endArrow=classic;html=1;rounded=0;fontSize=16;entryX=0;entryY=0.5;entryDx=0;entryDy=0;" parent="cnGfeA4LUYAOEn0dMFqA-1" target="cnGfeA4LUYAOEn0dMFqA-8" edge="1">
          <mxGeometry width="50" height="50" relative="1" as="geometry">
            <mxPoint x="130" y="190" as="sourcePoint" />
            <mxPoint x="510" y="250" as="targetPoint" />
          </mxGeometry>
        </mxCell>
        <mxCell id="cnGfeA4LUYAOEn0dMFqA-20" value="" style="endArrow=classic;html=1;rounded=0;fontSize=16;entryX=0;entryY=0.5;entryDx=0;entryDy=0;" parent="cnGfeA4LUYAOEn0dMFqA-1" edge="1">
          <mxGeometry width="50" height="50" relative="1" as="geometry">
            <mxPoint x="260" y="189.5" as="sourcePoint" />
            <mxPoint x="310" y="189.5" as="targetPoint" />
          </mxGeometry>
        </mxCell>
        <mxCell id="cnGfeA4LUYAOEn0dMFqA-21" value="" style="endArrow=classic;html=1;rounded=0;fontSize=16;entryX=0;entryY=0.5;entryDx=0;entryDy=0;" parent="cnGfeA4LUYAOEn0dMFqA-1" edge="1">
          <mxGeometry width="50" height="50" relative="1" as="geometry">
            <mxPoint x="520" y="189.5" as="sourcePoint" />
            <mxPoint x="570" y="189.5" as="targetPoint" />
          </mxGeometry>
        </mxCell>
        <mxCell id="cnGfeA4LUYAOEn0dMFqA-22" value="" style="endArrow=classic;html=1;rounded=0;fontSize=16;entryX=0;entryY=0.5;entryDx=0;entryDy=0;" parent="cnGfeA4LUYAOEn0dMFqA-1" edge="1">
          <mxGeometry width="50" height="50" relative="1" as="geometry">
            <mxPoint x="390" y="189.5" as="sourcePoint" />
            <mxPoint x="440" y="189.5" as="targetPoint" />
          </mxGeometry>
        </mxCell>
        <mxCell id="cnGfeA4LUYAOEn0dMFqA-23" value="" style="endArrow=classic;html=1;rounded=0;fontSize=16;entryX=0;entryY=0.5;entryDx=0;entryDy=0;" parent="cnGfeA4LUYAOEn0dMFqA-1" target="cnGfeA4LUYAOEn0dMFqA-25" edge="1">
          <mxGeometry width="50" height="50" relative="1" as="geometry">
            <mxPoint x="130" y="249.5" as="sourcePoint" />
            <mxPoint x="180" y="249.5" as="targetPoint" />
          </mxGeometry>
        </mxCell>
        <mxCell id="cnGfeA4LUYAOEn0dMFqA-24" value="" style="endArrow=classic;html=1;rounded=0;fontSize=16;entryX=0;entryY=0.5;entryDx=0;entryDy=0;" parent="cnGfeA4LUYAOEn0dMFqA-1" edge="1">
          <mxGeometry width="50" height="50" relative="1" as="geometry">
            <mxPoint x="650" y="189.5" as="sourcePoint" />
            <mxPoint x="700" y="189.5" as="targetPoint" />
          </mxGeometry>
        </mxCell>
        <mxCell id="cnGfeA4LUYAOEn0dMFqA-25" value="L1" style="rounded=0;whiteSpace=wrap;html=1;fontSize=16;fillColor=#008a00;fontColor=#ffffff;strokeColor=#005700;" parent="cnGfeA4LUYAOEn0dMFqA-1" vertex="1">
          <mxGeometry x="310" y="220" width="80" height="60" as="geometry" />
        </mxCell>
        <mxCell id="cnGfeA4LUYAOEn0dMFqA-26" value="L1" style="rounded=0;whiteSpace=wrap;html=1;fontSize=16;fillColor=#008a00;fontColor=#ffffff;strokeColor=#005700;" parent="cnGfeA4LUYAOEn0dMFqA-1" vertex="1">
          <mxGeometry x="570" y="220" width="80" height="60" as="geometry" />
        </mxCell>
        <mxCell id="cnGfeA4LUYAOEn0dMFqA-27" value="L2" style="rounded=0;whiteSpace=wrap;html=1;fontSize=16;fillColor=#006600;" parent="cnGfeA4LUYAOEn0dMFqA-1" vertex="1">
          <mxGeometry x="570" y="280" width="80" height="60" as="geometry" />
        </mxCell>
        <mxCell id="cnGfeA4LUYAOEn0dMFqA-28" value="L1" style="rounded=0;whiteSpace=wrap;html=1;fontSize=16;fillColor=#008a00;fontColor=#ffffff;strokeColor=#005700;" parent="cnGfeA4LUYAOEn0dMFqA-1" vertex="1">
          <mxGeometry x="700" y="220" width="80" height="60" as="geometry" />
        </mxCell>
        <mxCell id="cnGfeA4LUYAOEn0dMFqA-29" value="" style="endArrow=classic;html=1;rounded=0;fontSize=16;entryX=0;entryY=0.5;entryDx=0;entryDy=0;" parent="cnGfeA4LUYAOEn0dMFqA-1" edge="1">
          <mxGeometry width="50" height="50" relative="1" as="geometry">
            <mxPoint x="390" y="249.5" as="sourcePoint" />
            <mxPoint x="570" y="250" as="targetPoint" />
          </mxGeometry>
        </mxCell>
        <mxCell id="cnGfeA4LUYAOEn0dMFqA-30" value="" style="endArrow=classic;html=1;rounded=0;fontSize=16;entryX=0;entryY=0.5;entryDx=0;entryDy=0;" parent="cnGfeA4LUYAOEn0dMFqA-1" target="cnGfeA4LUYAOEn0dMFqA-27" edge="1">
          <mxGeometry width="50" height="50" relative="1" as="geometry">
            <mxPoint x="130" y="309.5" as="sourcePoint" />
            <mxPoint x="310" y="310" as="targetPoint" />
          </mxGeometry>
        </mxCell>
        <mxCell id="cnGfeA4LUYAOEn0dMFqA-31" value="" style="endArrow=classic;html=1;rounded=0;fontSize=16;entryX=0;entryY=0.5;entryDx=0;entryDy=0;" parent="cnGfeA4LUYAOEn0dMFqA-1" edge="1">
          <mxGeometry width="50" height="50" relative="1" as="geometry">
            <mxPoint x="650" y="249.5" as="sourcePoint" />
            <mxPoint x="700" y="249.5" as="targetPoint" />
          </mxGeometry>
        </mxCell>
      </root>
    </mxGraphModel>
  </diagram>
  <diagram id="bCZjBoV_-WG5XuxKohO0" name="持久化比较">
    <mxGraphModel dx="868" dy="527" grid="1" gridSize="10" guides="1" tooltips="1" connect="1" arrows="1" fold="1" page="1" pageScale="1" pageWidth="827" pageHeight="1169" math="0" shadow="0">
      <root>
        <mxCell id="d4V3Z14isYLjdhLvQF1o-0" />
        <mxCell id="d4V3Z14isYLjdhLvQF1o-1" parent="d4V3Z14isYLjdhLvQF1o-0" />
        <mxCell id="d4V3Z14isYLjdhLvQF1o-21" value="" style="shape=table;startSize=0;container=1;collapsible=0;childLayout=tableLayout;fontSize=16;fillColor=#d5e8d4;strokeColor=#82b366;" parent="d4V3Z14isYLjdhLvQF1o-1" vertex="1">
          <mxGeometry x="70" y="110" width="570" height="140" as="geometry" />
        </mxCell>
        <mxCell id="d4V3Z14isYLjdhLvQF1o-22" value="" style="shape=partialRectangle;collapsible=0;dropTarget=0;pointerEvents=0;fillColor=none;top=0;left=0;bottom=0;right=0;points=[[0,0.5],[1,0.5]];portConstraint=eastwest;fontSize=16;" parent="d4V3Z14isYLjdhLvQF1o-21" vertex="1">
          <mxGeometry width="570" height="40" as="geometry" />
        </mxCell>
        <mxCell id="d4V3Z14isYLjdhLvQF1o-23" value="" style="shape=partialRectangle;html=1;whiteSpace=wrap;connectable=0;overflow=hidden;fillColor=none;top=0;left=0;bottom=0;right=0;pointerEvents=1;fontSize=16;" parent="d4V3Z14isYLjdhLvQF1o-22" vertex="1">
          <mxGeometry width="110" height="40" as="geometry">
            <mxRectangle width="110" height="40" as="alternateBounds" />
          </mxGeometry>
        </mxCell>
        <mxCell id="d4V3Z14isYLjdhLvQF1o-24" value="RDB" style="shape=partialRectangle;html=1;whiteSpace=wrap;connectable=0;overflow=hidden;fillColor=none;top=0;left=0;bottom=0;right=0;pointerEvents=1;fontSize=16;" parent="d4V3Z14isYLjdhLvQF1o-22" vertex="1">
          <mxGeometry x="110" width="194" height="40" as="geometry">
            <mxRectangle width="194" height="40" as="alternateBounds" />
          </mxGeometry>
        </mxCell>
        <mxCell id="d4V3Z14isYLjdhLvQF1o-25" value="AOF" style="shape=partialRectangle;html=1;whiteSpace=wrap;connectable=0;overflow=hidden;top=0;left=0;bottom=0;right=0;pointerEvents=1;fontSize=16;fillColor=#d5e8d4;strokeColor=#82b366;" parent="d4V3Z14isYLjdhLvQF1o-22" vertex="1">
          <mxGeometry x="304" width="266" height="40" as="geometry">
            <mxRectangle width="266" height="40" as="alternateBounds" />
          </mxGeometry>
        </mxCell>
        <mxCell id="d4V3Z14isYLjdhLvQF1o-26" value="" style="shape=partialRectangle;collapsible=0;dropTarget=0;pointerEvents=0;fillColor=none;top=0;left=0;bottom=0;right=0;points=[[0,0.5],[1,0.5]];portConstraint=eastwest;fontSize=16;" parent="d4V3Z14isYLjdhLvQF1o-21" vertex="1">
          <mxGeometry y="40" width="570" height="60" as="geometry" />
        </mxCell>
        <mxCell id="d4V3Z14isYLjdhLvQF1o-27" value="优点" style="shape=partialRectangle;html=1;whiteSpace=wrap;connectable=0;overflow=hidden;top=0;left=0;bottom=0;right=0;pointerEvents=1;fontSize=16;fillColor=#60a917;fontColor=#ffffff;strokeColor=#2D7600;" parent="d4V3Z14isYLjdhLvQF1o-26" vertex="1">
          <mxGeometry width="110" height="60" as="geometry">
            <mxRectangle width="110" height="60" as="alternateBounds" />
          </mxGeometry>
        </mxCell>
        <mxCell id="d4V3Z14isYLjdhLvQF1o-28" value="相比AOF，效率更高" style="shape=partialRectangle;html=1;whiteSpace=wrap;connectable=0;overflow=hidden;top=0;left=0;bottom=0;right=0;pointerEvents=1;fontSize=16;fillColor=#60a917;fontColor=#ffffff;strokeColor=#2D7600;" parent="d4V3Z14isYLjdhLvQF1o-26" vertex="1">
          <mxGeometry x="110" width="194" height="60" as="geometry">
            <mxRectangle width="194" height="60" as="alternateBounds" />
          </mxGeometry>
        </mxCell>
        <mxCell id="d4V3Z14isYLjdhLvQF1o-29" value="&lt;font style=&quot;font-size: 16px&quot;&gt;几乎是实时的持久化，误操作之后，只要没有rewrite，就可以恢复&lt;/font&gt;" style="shape=partialRectangle;html=1;whiteSpace=wrap;connectable=0;overflow=hidden;top=0;left=0;bottom=0;right=0;pointerEvents=1;fontSize=16;fillColor=#60a917;strokeColor=#2D7600;fontColor=#ffffff;" parent="d4V3Z14isYLjdhLvQF1o-26" vertex="1">
          <mxGeometry x="304" width="266" height="60" as="geometry">
            <mxRectangle width="266" height="60" as="alternateBounds" />
          </mxGeometry>
        </mxCell>
        <mxCell id="d4V3Z14isYLjdhLvQF1o-30" value="" style="shape=partialRectangle;collapsible=0;dropTarget=0;pointerEvents=0;fillColor=none;top=0;left=0;bottom=0;right=0;points=[[0,0.5],[1,0.5]];portConstraint=eastwest;fontSize=16;" parent="d4V3Z14isYLjdhLvQF1o-21" vertex="1">
          <mxGeometry y="100" width="570" height="40" as="geometry" />
        </mxCell>
        <mxCell id="d4V3Z14isYLjdhLvQF1o-31" value="缺点" style="shape=partialRectangle;html=1;whiteSpace=wrap;connectable=0;overflow=hidden;top=0;left=0;bottom=0;right=0;pointerEvents=1;fontSize=16;fillColor=#008a00;strokeColor=#005700;fontColor=#ffffff;" parent="d4V3Z14isYLjdhLvQF1o-30" vertex="1">
          <mxGeometry width="110" height="40" as="geometry">
            <mxRectangle width="110" height="40" as="alternateBounds" />
          </mxGeometry>
        </mxCell>
        <mxCell id="d4V3Z14isYLjdhLvQF1o-32" value="无法保证数据的完整性" style="shape=partialRectangle;html=1;whiteSpace=wrap;connectable=0;overflow=hidden;top=0;left=0;bottom=0;right=0;pointerEvents=1;fontSize=16;fillColor=#008a00;strokeColor=#005700;fontColor=#ffffff;" parent="d4V3Z14isYLjdhLvQF1o-30" vertex="1">
          <mxGeometry x="110" width="194" height="40" as="geometry">
            <mxRectangle width="194" height="40" as="alternateBounds" />
          </mxGeometry>
        </mxCell>
        <mxCell id="d4V3Z14isYLjdhLvQF1o-33" value="文件占用空间大，恢复速度慢" style="shape=partialRectangle;html=1;whiteSpace=wrap;connectable=0;overflow=hidden;top=0;left=0;bottom=0;right=0;pointerEvents=1;fontSize=16;fillColor=#008a00;strokeColor=#005700;fontColor=#ffffff;" parent="d4V3Z14isYLjdhLvQF1o-30" vertex="1">
          <mxGeometry x="304" width="266" height="40" as="geometry">
            <mxRectangle width="266" height="40" as="alternateBounds" />
          </mxGeometry>
        </mxCell>
      </root>
    </mxGraphModel>
  </diagram>
  <diagram id="UZrgYwF9WFpfSur1Hvf5" name="old-主从原理">
    <mxGraphModel dx="868" dy="527" grid="1" gridSize="10" guides="1" tooltips="1" connect="1" arrows="1" fold="1" page="1" pageScale="1" pageWidth="827" pageHeight="1169" math="0" shadow="0">
      <root>
        <mxCell id="iJnOTztqdYKy_IFloHg4-0" />
        <mxCell id="iJnOTztqdYKy_IFloHg4-1" parent="iJnOTztqdYKy_IFloHg4-0" />
        <mxCell id="iJnOTztqdYKy_IFloHg4-3" value="主&lt;br style=&quot;font-size: 18px;&quot;&gt;服&lt;br style=&quot;font-size: 18px;&quot;&gt;务&lt;br style=&quot;font-size: 18px;&quot;&gt;器" style="rounded=1;whiteSpace=wrap;html=1;direction=south;fontSize=18;fillColor=#21C0A5;strokeColor=#006658;fontColor=#5C5C5C;" vertex="1" parent="iJnOTztqdYKy_IFloHg4-1">
          <mxGeometry x="240" y="130" width="60" height="120" as="geometry" />
        </mxCell>
        <mxCell id="iJnOTztqdYKy_IFloHg4-4" value="从&lt;br style=&quot;font-size: 18px;&quot;&gt;服&lt;br style=&quot;font-size: 18px;&quot;&gt;务&lt;br style=&quot;font-size: 18px;&quot;&gt;器" style="rounded=1;whiteSpace=wrap;html=1;direction=south;fillColor=#21C0A5;strokeColor=#006658;fontColor=#5C5C5C;fontSize=18;" vertex="1" parent="iJnOTztqdYKy_IFloHg4-1">
          <mxGeometry x="520" y="130" width="60" height="120" as="geometry" />
        </mxCell>
        <mxCell id="iJnOTztqdYKy_IFloHg4-5" value="" style="endArrow=classic;html=1;rounded=1;fontSize=18;strokeColor=#006658;fontColor=#5C5C5C;" edge="1" parent="iJnOTztqdYKy_IFloHg4-1">
          <mxGeometry width="50" height="50" relative="1" as="geometry">
            <mxPoint x="520" y="139" as="sourcePoint" />
            <mxPoint x="300" y="139" as="targetPoint" />
          </mxGeometry>
        </mxCell>
        <mxCell id="iJnOTztqdYKy_IFloHg4-6" value="1.发送SYNC命令" style="text;html=1;align=center;verticalAlign=middle;resizable=0;points=[];autosize=1;strokeColor=none;fillColor=none;fontSize=18;fontColor=#5C5C5C;rounded=1;" vertex="1" parent="iJnOTztqdYKy_IFloHg4-1">
          <mxGeometry x="339" y="110" width="150" height="30" as="geometry" />
        </mxCell>
        <mxCell id="iJnOTztqdYKy_IFloHg4-8" value="" style="edgeStyle=elbowEdgeStyle;elbow=horizontal;endArrow=classic;html=1;rounded=1;fontSize=18;strokeColor=#006658;fontColor=#5C5C5C;" edge="1" parent="iJnOTztqdYKy_IFloHg4-1">
          <mxGeometry width="50" height="50" relative="1" as="geometry">
            <mxPoint x="240" y="220" as="sourcePoint" />
            <mxPoint x="240" y="150" as="targetPoint" />
            <Array as="points">
              <mxPoint x="170" y="170" />
            </Array>
          </mxGeometry>
        </mxCell>
        <mxCell id="iJnOTztqdYKy_IFloHg4-9" value="2.执行&lt;br&gt;BGSAVE&lt;br&gt;命令" style="text;html=1;align=center;verticalAlign=middle;resizable=0;points=[];autosize=1;strokeColor=none;fillColor=none;fontSize=18;fontColor=#5C5C5C;rounded=1;" vertex="1" parent="iJnOTztqdYKy_IFloHg4-1">
          <mxGeometry x="80" y="150" width="90" height="70" as="geometry" />
        </mxCell>
        <mxCell id="iJnOTztqdYKy_IFloHg4-10" value="" style="endArrow=classic;html=1;rounded=1;fontSize=18;strokeColor=#006658;fontColor=#5C5C5C;" edge="1" parent="iJnOTztqdYKy_IFloHg4-1">
          <mxGeometry width="50" height="50" relative="1" as="geometry">
            <mxPoint x="300" y="172" as="sourcePoint" />
            <mxPoint x="520" y="172" as="targetPoint" />
          </mxGeometry>
        </mxCell>
        <mxCell id="iJnOTztqdYKy_IFloHg4-11" value="3.发送RDB文件" style="text;html=1;align=center;verticalAlign=middle;resizable=0;points=[];autosize=1;strokeColor=none;fillColor=none;fontSize=18;fontColor=#5C5C5C;rounded=1;" vertex="1" parent="iJnOTztqdYKy_IFloHg4-1">
          <mxGeometry x="344" y="145" width="140" height="30" as="geometry" />
        </mxCell>
        <mxCell id="iJnOTztqdYKy_IFloHg4-12" value="" style="edgeStyle=elbowEdgeStyle;elbow=horizontal;endArrow=classic;html=1;rounded=1;fontSize=18;strokeColor=#006658;fontColor=#5C5C5C;" edge="1" parent="iJnOTztqdYKy_IFloHg4-1">
          <mxGeometry width="50" height="50" relative="1" as="geometry">
            <mxPoint x="580" y="215" as="sourcePoint" />
            <mxPoint x="580" y="146" as="targetPoint" />
            <Array as="points">
              <mxPoint x="650" y="180" />
            </Array>
          </mxGeometry>
        </mxCell>
        <mxCell id="iJnOTztqdYKy_IFloHg4-13" value="4.载入&lt;br&gt;RDB&lt;br&gt;文件" style="text;html=1;align=center;verticalAlign=middle;resizable=0;points=[];autosize=1;strokeColor=none;fillColor=none;fontSize=18;fontColor=#5C5C5C;rounded=1;" vertex="1" parent="iJnOTztqdYKy_IFloHg4-1">
          <mxGeometry x="650" y="145" width="70" height="70" as="geometry" />
        </mxCell>
        <mxCell id="iJnOTztqdYKy_IFloHg4-21" value="5.发送缓冲区&lt;br&gt;所有保存的写命令" style="text;html=1;align=center;verticalAlign=middle;resizable=0;points=[];autosize=1;strokeColor=none;fillColor=none;fontSize=18;fontColor=#5C5C5C;rounded=1;" vertex="1" parent="iJnOTztqdYKy_IFloHg4-1">
          <mxGeometry x="334" y="191" width="160" height="50" as="geometry" />
        </mxCell>
        <mxCell id="iJnOTztqdYKy_IFloHg4-22" value="" style="endArrow=classic;html=1;rounded=1;fontSize=18;strokeColor=#006658;fontColor=#5C5C5C;" edge="1" parent="iJnOTztqdYKy_IFloHg4-1">
          <mxGeometry width="50" height="50" relative="1" as="geometry">
            <mxPoint x="300" y="190" as="sourcePoint" />
            <mxPoint x="520" y="190" as="targetPoint" />
          </mxGeometry>
        </mxCell>
      </root>
    </mxGraphModel>
  </diagram>
  <diagram id="pKdFUeDVKHnYBcvGN529" name="new-主从原理">
    <mxGraphModel dx="868" dy="527" grid="1" gridSize="10" guides="1" tooltips="1" connect="1" arrows="1" fold="1" page="1" pageScale="1" pageWidth="827" pageHeight="1169" math="0" shadow="0">
      <root>
        <mxCell id="zw0RzDwvTVJpZSHsZvbb-0" />
        <mxCell id="zw0RzDwvTVJpZSHsZvbb-1" parent="zw0RzDwvTVJpZSHsZvbb-0" />
        <mxCell id="zw0RzDwvTVJpZSHsZvbb-2" value="主&lt;br style=&quot;font-size: 18px;&quot;&gt;服&lt;br style=&quot;font-size: 18px;&quot;&gt;务&lt;br style=&quot;font-size: 18px;&quot;&gt;器" style="rounded=1;whiteSpace=wrap;html=1;direction=south;fontSize=18;fillColor=#21C0A5;strokeColor=#006658;fontColor=#5C5C5C;" vertex="1" parent="zw0RzDwvTVJpZSHsZvbb-1">
          <mxGeometry x="240" y="130" width="60" height="120" as="geometry" />
        </mxCell>
        <mxCell id="zw0RzDwvTVJpZSHsZvbb-3" value="从&lt;br style=&quot;font-size: 18px;&quot;&gt;服&lt;br style=&quot;font-size: 18px;&quot;&gt;务&lt;br style=&quot;font-size: 18px;&quot;&gt;器" style="rounded=1;whiteSpace=wrap;html=1;direction=south;fillColor=#21C0A5;strokeColor=#006658;fontColor=#5C5C5C;fontSize=18;" vertex="1" parent="zw0RzDwvTVJpZSHsZvbb-1">
          <mxGeometry x="520" y="130" width="60" height="120" as="geometry" />
        </mxCell>
        <mxCell id="zw0RzDwvTVJpZSHsZvbb-4" value="" style="endArrow=classic;html=1;rounded=1;fontSize=18;strokeColor=#006658;fontColor=#5C5C5C;" edge="1" parent="zw0RzDwvTVJpZSHsZvbb-1">
          <mxGeometry width="50" height="50" relative="1" as="geometry">
            <mxPoint x="520" y="139" as="sourcePoint" />
            <mxPoint x="300" y="139" as="targetPoint" />
          </mxGeometry>
        </mxCell>
        <mxCell id="zw0RzDwvTVJpZSHsZvbb-5" value="1.发送PSYNC命令" style="text;html=1;align=center;verticalAlign=middle;resizable=0;points=[];autosize=1;strokeColor=none;fillColor=none;fontSize=18;fontColor=#5C5C5C;rounded=1;" vertex="1" parent="zw0RzDwvTVJpZSHsZvbb-1">
          <mxGeometry x="334" y="110" width="160" height="30" as="geometry" />
        </mxCell>
        <mxCell id="zw0RzDwvTVJpZSHsZvbb-8" value="" style="endArrow=classic;html=1;rounded=1;fontSize=18;strokeColor=#006658;fontColor=#5C5C5C;" edge="1" parent="zw0RzDwvTVJpZSHsZvbb-1">
          <mxGeometry width="50" height="50" relative="1" as="geometry">
            <mxPoint x="300" y="172" as="sourcePoint" />
            <mxPoint x="520" y="172" as="targetPoint" />
          </mxGeometry>
        </mxCell>
        <mxCell id="zw0RzDwvTVJpZSHsZvbb-9" value="+CONTINUE" style="text;html=1;align=center;verticalAlign=middle;resizable=0;points=[];autosize=1;strokeColor=none;fillColor=none;fontSize=18;fontColor=#5C5C5C;rounded=1;" vertex="1" parent="zw0RzDwvTVJpZSHsZvbb-1">
          <mxGeometry x="354" y="145" width="120" height="30" as="geometry" />
        </mxCell>
        <mxCell id="zw0RzDwvTVJpZSHsZvbb-10" value="" style="edgeStyle=elbowEdgeStyle;elbow=horizontal;endArrow=classic;html=1;rounded=1;fontSize=18;strokeColor=#006658;fontColor=#5C5C5C;" edge="1" parent="zw0RzDwvTVJpZSHsZvbb-1">
          <mxGeometry width="50" height="50" relative="1" as="geometry">
            <mxPoint x="580" y="215" as="sourcePoint" />
            <mxPoint x="580" y="146" as="targetPoint" />
            <Array as="points">
              <mxPoint x="650" y="180" />
            </Array>
          </mxGeometry>
        </mxCell>
        <mxCell id="zw0RzDwvTVJpZSHsZvbb-11" value="3.执行&lt;br&gt;主服务器&lt;br&gt;的写命令" style="text;html=1;align=center;verticalAlign=middle;resizable=0;points=[];autosize=1;strokeColor=none;fillColor=none;fontSize=18;fontColor=#5C5C5C;rounded=1;" vertex="1" parent="zw0RzDwvTVJpZSHsZvbb-1">
          <mxGeometry x="651" y="145" width="90" height="70" as="geometry" />
        </mxCell>
        <mxCell id="zw0RzDwvTVJpZSHsZvbb-12" value="2.发送断线期间&lt;br&gt;主服务器执行的写命令" style="text;html=1;align=center;verticalAlign=middle;resizable=0;points=[];autosize=1;strokeColor=none;fillColor=none;fontSize=18;fontColor=#5C5C5C;rounded=1;" vertex="1" parent="zw0RzDwvTVJpZSHsZvbb-1">
          <mxGeometry x="314" y="191" width="200" height="50" as="geometry" />
        </mxCell>
        <mxCell id="zw0RzDwvTVJpZSHsZvbb-13" value="" style="endArrow=classic;html=1;rounded=1;fontSize=18;strokeColor=#006658;fontColor=#5C5C5C;" edge="1" parent="zw0RzDwvTVJpZSHsZvbb-1">
          <mxGeometry width="50" height="50" relative="1" as="geometry">
            <mxPoint x="300" y="190" as="sourcePoint" />
            <mxPoint x="520" y="190" as="targetPoint" />
          </mxGeometry>
        </mxCell>
        <mxCell id="zw0RzDwvTVJpZSHsZvbb-15" value="执行部分同步的过程" style="text;html=1;align=center;verticalAlign=middle;resizable=0;points=[];autosize=1;strokeColor=none;fillColor=none;fontSize=18;fontColor=#003300;" vertex="1" parent="zw0RzDwvTVJpZSHsZvbb-1">
          <mxGeometry x="324" y="270" width="180" height="30" as="geometry" />
        </mxCell>
      </root>
    </mxGraphModel>
  </diagram>
</mxfile>
